<svg width="32" height="32" viewBox="0 0 32 32" fill="none" xmlns="http://www.w3.org/2000/svg">
<rect width="32" height="32" rx="16" fill="#F7F7F7" fill-opacity="0.16"/>
<path d="M9.80476 22.0097C9.54441 21.7493 9.54441 21.3272 9.80476 21.0669L20.8919 9.97978C21.1522 9.71943 21.5743 9.71943 21.8347 9.97978C22.095 10.2401 22.095 10.6622 21.8347 10.9226L10.7476 22.0097C10.4872 22.27 10.0651 22.27 9.80476 22.0097Z" fill="#434343"/>
<path d="M10.1654 9.8047C10.4258 9.54435 10.8479 9.54435 11.1082 9.8047L22.1953 20.8918C22.4557 21.1521 22.4557 21.5742 22.1953 21.8346C21.935 22.0949 21.5129 22.0949 21.2525 21.8346L10.1654 10.7475C9.90507 10.4872 9.90507 10.065 10.1654 9.8047Z" fill="#434343"/>
</svg>
