<svg width="40" height="40" viewBox="0 0 40 40" fill="none" xmlns="http://www.w3.org/2000/svg">
<rect width="40" height="40" rx="8" fill="#1F8EF5" fill-opacity="0.16"/>
<g clip-path="url(#clip0_6_6948)">
<path d="M27.8747 25.25C27.4058 25.2624 26.9488 25.4007 26.5517 25.6503L23.6484 22.8219C24.2403 22.0744 24.5803 21.1587 24.6197 20.2061L26.6803 20C26.8553 20.4409 27.1845 20.8031 27.6068 21.0193C28.029 21.2355 28.5154 21.2908 28.9754 21.175C29.4354 21.0593 29.8376 20.7802 30.1072 20.3899C30.3767 19.9996 30.4952 19.5246 30.4406 19.0535C30.386 18.5823 30.162 18.147 29.8103 17.8287C29.4587 17.5104 29.0033 17.3307 28.529 17.3232C28.0547 17.3157 27.5939 17.4808 27.2323 17.7878C26.8707 18.0948 26.633 18.5228 26.5635 18.992L24.4753 19.16C24.3361 18.4421 24.028 17.7676 23.5766 17.1922C23.1252 16.6169 22.5433 16.1572 21.8792 15.8512L22.2834 14.75H22.6247C23.261 14.7452 23.8739 14.5095 24.3494 14.0866C24.8249 13.6637 25.1306 13.0825 25.2096 12.4511C25.2887 11.8197 25.1357 11.1811 24.7791 10.6541C24.4225 10.1271 23.8866 9.7475 23.2711 9.58601C22.6556 9.42452 22.0024 9.4921 21.4331 9.77617C20.8637 10.0603 20.4168 10.5415 20.1757 11.1304C19.9346 11.7192 19.9156 12.3756 20.1222 12.9775C20.3288 13.5793 20.7471 14.0856 21.299 14.4022L20.9447 15.5244C20.6201 15.4498 20.2881 15.4128 19.955 15.4141C18.8657 15.4141 17.8682 15.8026 17.0925 16.4497L13.1629 12.5069C13.392 12.137 13.4921 11.7017 13.4476 11.2688C13.4031 10.836 13.2165 10.4301 12.9169 10.1146C12.6173 9.79903 12.2216 9.59163 11.7917 9.52478C11.3617 9.45794 10.9217 9.53541 10.5405 9.74508C10.1592 9.95476 9.85817 10.2848 9.68436 10.6837C9.51055 11.0826 9.47378 11.5278 9.57979 11.9498C9.68581 12.3718 9.92863 12.7468 10.2703 13.0162C10.612 13.2856 11.0333 13.4342 11.4684 13.4388C11.8372 13.4375 12.1824 13.3351 12.4751 13.1579L16.4034 17.1007C15.7552 17.9072 15.4032 18.9115 15.4059 19.9462V20.2126L14.5397 20.357C14.284 19.759 13.8155 19.2771 13.2248 19.0049C12.6341 18.7327 11.9634 18.6894 11.3427 18.8834C10.7219 19.0775 10.1953 19.4951 9.86493 20.0553C9.53453 20.6155 9.42387 21.2785 9.55438 21.9156C9.68489 22.5528 10.0473 23.1188 10.5713 23.504C11.0954 23.8891 11.7438 24.0661 12.3908 24.0005C13.0379 23.9348 13.6376 23.6313 14.0736 23.1488C14.5097 22.6662 14.751 22.039 14.751 21.3886L14.7497 21.3112L15.5765 21.1839C15.8808 22.2593 16.5643 23.1881 17.5007 23.7984L16.7709 25.3576C16.5412 25.2896 16.3031 25.2543 16.0635 25.2526H16.0412C15.4201 25.2529 14.8192 25.4734 14.3453 25.875C13.8714 26.2766 13.5553 26.8331 13.4532 27.4458C13.351 28.0584 13.4694 28.6875 13.7872 29.2211C14.1051 29.7547 14.6019 30.1583 15.1893 30.3601C15.7767 30.562 16.4167 30.549 16.9954 30.3235C17.5742 30.098 18.0542 29.6746 18.3502 29.1285C18.6462 28.5825 18.7389 27.9491 18.612 27.3411C18.485 26.7331 18.1466 26.1898 17.6569 25.8078L18.3997 24.2945C18.8775 24.4861 19.4327 24.5977 20.0128 24.5977C21.1245 24.5977 22.1404 24.1895 22.9213 23.5162L25.7773 26.3039C25.4225 26.777 25.2378 27.356 25.2532 27.9471C25.2685 28.5383 25.4831 29.1069 25.8619 29.5609C26.2408 30.0149 26.7619 30.3277 27.3408 30.4485C27.9196 30.5694 28.5223 30.4913 29.0512 30.2268C29.5801 29.9624 30.0043 29.5271 30.2549 28.9915C30.5055 28.4559 30.5679 27.8513 30.4321 27.2758C30.2962 26.7003 29.97 26.1875 29.5063 25.8206C29.0426 25.4536 28.4686 25.2539 27.8773 25.2539L27.8747 25.25ZM16.0622 29.1875C15.7141 29.1875 15.3802 29.0492 15.1341 28.8031C14.888 28.5569 14.7497 28.2231 14.7497 27.875C14.7497 27.5269 14.888 27.1931 15.1341 26.9469C15.3802 26.7008 15.7141 26.5625 16.0622 26.5625C16.4103 26.5625 16.7441 26.7008 16.9902 26.9469C17.2364 27.1931 17.3747 27.5269 17.3747 27.875C17.3747 28.2231 17.2364 28.5569 16.9902 28.8031C16.7441 29.0492 16.4103 29.1875 16.0622 29.1875ZM19.9997 23.2812C19.1294 23.2812 18.2948 22.9355 17.6795 22.3202C17.0641 21.7048 16.7184 20.8702 16.7184 20C16.7184 19.1298 17.0641 18.2952 17.6795 17.6798C18.2948 17.0644 19.1294 16.7187 19.9997 16.7187C20.8699 16.7187 21.7045 17.0644 22.3199 17.6798C22.9352 18.2952 23.2809 19.1298 23.2809 20C23.2809 20.8702 22.9352 21.7048 22.3199 22.3202C21.7045 22.9355 20.8699 23.2812 19.9997 23.2812Z" fill="#1F8EF5"/>
</g>
<defs>
<clipPath id="clip0_6_6948">
<rect width="21" height="21" fill="white" transform="translate(9.5 9.5)"/>
</clipPath>
</defs>
</svg>
