<svg width="20" height="20" viewBox="0 0 20 20" fill="none" xmlns="http://www.w3.org/2000/svg">
<circle cx="9.99997" cy="9.99997" r="9.00375" stroke="#FAFFFF" stroke-width="1.5" stroke-linecap="round" stroke-linejoin="round"/>
<path d="M10 5.99835C11.2277 5.99835 12.223 6.99359 12.223 8.22128C12.223 9.44897 11.2277 10.4442 10 10.4442C8.77234 10.4442 7.7771 9.44897 7.7771 8.22128C7.7771 6.99359 8.77234 5.99835 10 5.99835" stroke="#FAFFFF" stroke-width="1.5" stroke-linecap="round" stroke-linejoin="round"/>
<path fill-rule="evenodd" clip-rule="evenodd" d="M14.0017 14.4749C11.7916 16.6848 8.20844 16.6848 5.99835 14.4749C6.1153 14.1825 6.29572 13.9197 6.52657 13.7055C6.91685 13.3432 7.42961 13.1416 7.96217 13.1413H12.0389C12.5711 13.1416 13.0836 13.3432 13.4735 13.7055C13.7049 13.9192 13.8854 14.1821 14.0017 14.4749Z" stroke="#FAFFFF" stroke-width="1.5" stroke-linecap="round" stroke-linejoin="round"/>
</svg>
