<svg width="14" height="12" viewBox="0 0 14 12" fill="none" xmlns="http://www.w3.org/2000/svg">
<path fill-rule="evenodd" clip-rule="evenodd" d="M0.997559 6C0.998151 5.55781 1.0999 5.12162 1.29502 4.7248V4.7248C2.39907 2.60308 4.60865 1.28881 7.00006 1.33139C9.39146 1.28881 11.601 2.60308 12.7051 4.7248V4.7248C13.1017 5.52868 13.1017 6.47132 12.7051 7.2752V7.2752C11.601 9.39691 9.39146 10.7112 7.00006 10.6686C4.60865 10.7112 2.39907 9.39691 1.29502 7.2752V7.2752C1.0999 6.87838 0.998151 6.44219 0.997559 6Z" stroke="#63686C" stroke-linecap="round" stroke-linejoin="round"/>
<path d="M9.00118 5.99998C9.00118 7.10501 8.10538 8.00081 7.00035 8.00081C5.89532 8.00081 4.99951 7.10501 4.99951 5.99998C4.99951 4.89495 5.89532 3.99915 7.00035 3.99915" stroke="#63686C" stroke-linecap="round" stroke-linejoin="round"/>
</svg>
