<svg width="18" height="20" viewBox="0 0 18 20" fill="none" xmlns="http://www.w3.org/2000/svg">
<path d="M6.99918 9.35441L11.0008 9.35334" stroke="#4B5053" stroke-width="1.5" stroke-linecap="round" stroke-linejoin="round"/>
<path d="M6.50897 16.0025V16.5147C6.50897 17.8894 7.62335 19.0038 8.99801 19.0038H9.00001C9.66041 19.004 10.2939 18.7419 10.761 18.2751C11.2282 17.8084 11.4908 17.1751 11.491 16.5147V16.0025" stroke="#4B5053" stroke-width="1.5" stroke-linecap="round" stroke-linejoin="round"/>
<path fill-rule="evenodd" clip-rule="evenodd" d="M14.9495 16.0025C16.0838 16.0025 17.0033 15.083 17.0033 13.9486V13.9486C17.0029 13.3724 16.7741 12.8199 16.3671 12.412L15.0025 11.0484V6.99875C15.0025 3.68366 12.3151 0.996246 9.00001 0.996246V0.996246C5.68492 0.996246 2.99751 3.68366 2.99751 6.99875V11.0484L1.63294 12.412C1.22592 12.8199 0.997135 13.3724 0.996674 13.9486V13.9486C0.996674 14.4934 1.21306 15.0158 1.59823 15.4009C1.98341 15.7861 2.50581 16.0025 3.05053 16.0025H14.9495Z" stroke="#4B5053" stroke-width="1.5" stroke-linecap="round" stroke-linejoin="round"/>
</svg>
