<svg width="14" height="14" viewBox="0 0 14 14" fill="none" xmlns="http://www.w3.org/2000/svg">
<path fill-rule="evenodd" clip-rule="evenodd" d="M2.00395 6.13217L1.77477 5.87374C1.39398 5.44434 1.33069 4.81944 1.61766 4.32241L1.98995 3.67755C2.2769 3.18053 2.84969 2.92289 3.41195 3.03794L3.7504 3.10719C4.06371 3.1713 4.38966 3.1184 4.66661 2.95849V2.95849C4.94357 2.79859 5.15235 2.54276 5.25348 2.23937L5.36271 1.91169C5.5442 1.36724 6.05372 1 6.62762 1H7.37229C7.94619 1 8.45571 1.36724 8.63719 1.91169L8.74643 2.23937C8.84756 2.54276 9.05633 2.79858 9.33328 2.95849V2.95849C9.61024 3.1184 9.93619 3.1713 10.2495 3.10719L10.588 3.03793C11.1502 2.92288 11.723 3.18052 12.01 3.67754L12.3823 4.32242C12.6693 4.81945 12.606 5.44435 12.2252 5.87375L11.996 6.13218C11.7838 6.37146 11.6666 6.68019 11.6666 7V7C11.6666 7.31982 11.7838 7.62855 11.996 7.86783L12.2252 8.12626C12.6059 8.55566 12.6692 9.18056 12.3823 9.67759L12.0099 10.3225C11.723 10.8195 11.1502 11.0771 10.5879 10.9621L10.2494 10.8928C9.93609 10.8287 9.61019 10.8816 9.33327 11.0415V11.0415C9.05631 11.2014 8.84753 11.4572 8.7464 11.7606L8.63715 12.0883C8.45567 12.6328 7.94616 13 7.37226 13H6.62763C6.05372 13 5.5442 12.6328 5.36272 12.0883L5.25347 11.7606C5.15235 11.4572 4.94357 11.2013 4.66661 11.0414V11.0414C4.38969 10.8816 4.06379 10.8287 3.75051 10.8928L3.41195 10.9621C2.84969 11.0771 2.2769 10.8195 1.98995 10.3225L1.61762 9.67757C1.33065 9.18054 1.39394 8.55564 1.77473 8.12624L2.00391 7.86781C2.2161 7.62854 2.33327 7.31981 2.33328 7V7C2.33329 6.68019 2.21613 6.37146 2.00395 6.13217Z" stroke="#63686C" stroke-linecap="round" stroke-linejoin="round"/>
<circle cx="7" cy="7" r="2" stroke="#63686C" stroke-linecap="round" stroke-linejoin="round"/>
</svg>
