<svg width="20" height="20" viewBox="0 0 20 20" fill="none" xmlns="http://www.w3.org/2000/svg">
<path d="M13.3335 17.5H15.0002C16.3809 17.5 17.5002 16.3807 17.5002 15V13.3333" stroke="#1F8EF5" stroke-width="1.25" stroke-linecap="round" stroke-linejoin="round"/>
<path d="M13.3335 2.5H15.0002C16.3809 2.5 17.5002 3.61929 17.5002 5V6.66667" stroke="#1F8EF5" stroke-width="1.25" stroke-linecap="round" stroke-linejoin="round"/>
<path d="M2.5 13.3333V15C2.5 16.3807 3.61929 17.5 5 17.5H6.66667" stroke="#1F8EF5" stroke-width="1.25" stroke-linecap="round" stroke-linejoin="round"/>
<path d="M2.5 6.66667V5C2.5 3.61929 3.61929 2.5 5 2.5H6.66667" stroke="#1F8EF5" stroke-width="1.25" stroke-linecap="round" stroke-linejoin="round"/>
<path d="M14.1668 13.75C14.1668 12.5994 13.2341 11.6667 12.0835 11.6667H7.91683C6.76624 11.6667 5.8335 12.5994 5.8335 13.75" stroke="#1F8EF5" stroke-width="1.25" stroke-linecap="round" stroke-linejoin="round"/>
<circle cx="9.99984" cy="7.50002" r="2.08333" stroke="#1F8EF5" stroke-width="1.25" stroke-linecap="round" stroke-linejoin="round"/>
</svg>
