<svg width="14" height="14" viewBox="0 0 14 14" fill="none" xmlns="http://www.w3.org/2000/svg">
<g id="Frame 482863">
<g id="Vector">
<path d="M0.804638 13.0097C0.544287 12.7493 0.544287 12.3272 0.804638 12.0669L11.8917 0.979781C12.1521 0.719431 12.5742 0.719431 12.8346 0.97978C13.0949 1.24013 13.0949 1.66224 12.8346 1.92259L1.74745 13.0097C1.4871 13.27 1.06499 13.27 0.804638 13.0097Z" fill="#434343"/>
<path d="M1.16529 0.804698C1.42564 0.544349 1.84776 0.544349 2.10811 0.804698L13.1952 11.8918C13.4556 12.1521 13.4556 12.5742 13.1952 12.8346C12.9349 13.0949 12.5127 13.0949 12.2524 12.8346L1.16529 1.74751C0.904945 1.48716 0.904944 1.06505 1.16529 0.804698Z" fill="#434343"/>
</g>
</g>
</svg>
